HIERARCHY
ROOT hip
{
	OFFSET 0.000000 0.000000 0.000000 
	CHANNELS 6 Xposition Yposition Zposition Xrotation Zrotation Yrotation
	JOINT abdomen
	{
		OFFSET 0.000000 3.402643 0.000000 
		CHANNELS 3 Xrotation Zrotation Yrotation
		JOINT chest
		{
			OFFSET 0.000000 8.438565 -0.680529 
			CHANNELS 3 Xrotation Zrotation Yrotation
			JOINT neck
			{
				OFFSET 0.000000 10.207942 -0.272212 
				CHANNELS 3 Xrotation Zrotation Yrotation
				JOINT head
				{
					OFFSET 0.000000 3.130431 0.000000 
					CHANNELS 3 Xrotation Zrotation Yrotation
					End Site
					{
						OFFSET 0.000000 3.130435 0.000000 
					}
				}
			}
			JOINT lCollar
			{
				OFFSET 3.470700 6.669187 -0.816635 
				CHANNELS 3 Yrotation Zrotation Xrotation
				JOINT lShldr
				{
					OFFSET 3.198488 0.000000 0.000000 
					CHANNELS 3 Zrotation Yrotation Xrotation
					JOINT lForeArm
					{
						OFFSET 10.139888 0.000000 0.000000 
						CHANNELS 3 Yrotation Zrotation Xrotation
						JOINT lHand
						{
							OFFSET 8.370511 0.000000 0.000000 
							CHANNELS 3 Zrotation Yrotation Xrotation
							End Site
							{
								OFFSET 4.083176 0.000000 0.000000 
							}
						}
					}
				}
			}
			JOINT rCollar
			{
				OFFSET -3.470700 6.669187 -0.816635 
				CHANNELS 3 Yrotation Zrotation Xrotation
				JOINT rShldr
				{
					OFFSET -3.198488 0.000000 0.000000 
					CHANNELS 3 Zrotation Yrotation Xrotation
					JOINT rForeArm
					{
						OFFSET -10.139888 0.000000 0.000000 
						CHANNELS 3 Yrotation Zrotation Xrotation
						JOINT rHand
						{
							OFFSET -8.370511 0.000000 0.000000 
							CHANNELS 3 Zrotation Yrotation Xrotation
							End Site
							{
								OFFSET -4.083176 0.000000 0.000000 
							}
						}
					}
				}
			}
		}
	}
	JOINT lThigh
	{
		OFFSET 5.308129 -1.633274 1.361059 
		CHANNELS 3 Xrotation Zrotation Yrotation
		JOINT lShin
		{
			OFFSET -2.041588 -20.007561 0.000000 
			CHANNELS 3 Xrotation Zrotation Yrotation
			JOINT lFoot
			{
				OFFSET 0.000000 -19.190928 -1.224953 
				CHANNELS 3 Xrotation Yrotation Zrotation
				End Site
				{
					OFFSET 0.000000 -2.449906 4.627600 
				}
			}
		}
	}
	JOINT rThigh
	{
		OFFSET -5.308129 -1.633274 1.361059 
		CHANNELS 3 Xrotation Zrotation Yrotation
		JOINT rShin
		{
			OFFSET 2.041588 -20.007561 0.000000 
			CHANNELS 3 Xrotation Zrotation Yrotation
			JOINT rFoot
			{
				OFFSET 0.000000 -19.190928 -1.224953 
				CHANNELS 3 Xrotation Yrotation Zrotation
				End Site
				{
					OFFSET 0.000000 -2.449906 4.627600 
				}
			}
		}
	}
}
MOTION
Frames: 17
Frame Time: 0.033333
-0.095879 48.429661 -0.499135 -0.419940 0.537095 -0.345733 0.000000 0.000000 0.000000 -4.365303 -0.321331 0.297966 4.795972 -0.074616 0.181173 5.683553 0.302341 -0.103312 -0.798920 10.091302 -3.349866 -8.334540 -2.574868 -7.937970 1.303047 -2.403902 12.890174 2.971429 -2.690296 -3.565226 0.067459 -11.116932 -3.465518 8.129371 -3.895915 -12.566454 -1.128677 5.688786 18.883726 -1.843053 1.859932 -3.509491 8.053621 7.507886 5.570943 -2.324266 -2.985483 3.709663 -4.155398 0.221478 -6.027210 7.279584 -9.389076 -8.237855 -0.615354 3.308385 -1.819531 -4.729232 -0.287581 6.508033 
-0.121679 48.426132 -0.505993 -0.390643 0.556628 -0.130748 0.000000 0.000000 0.000000 -4.355542 -0.331072 0.200997 4.873339 -0.218977 0.173324 5.273286 0.545951 -0.119657 -1.040845 9.744580 -3.334488 -8.009687 -2.574093 -8.262353 1.291158 -2.153341 13.886149 2.288426 -2.732679 -3.525435 -0.039339 -11.266096 -3.458640 8.127587 -3.925939 -12.449469 -1.116588 5.758681 18.709709 -1.779590 1.942092 -3.505770 7.965397 7.566318 5.589175 -2.283136 -2.992813 3.452913 -4.169106 0.222674 -6.069334 7.270762 -9.360063 -8.213911 -0.556516 3.309252 -1.844342 -4.847321 -0.303396 6.471766 
-0.120672 48.421349 -0.529224 -0.322273 0.390619 -0.060791 0.000000 0.000000 0.000000 -4.355570 -0.389497 0.146853 4.884212 0.394936 0.052564 5.244136 -0.087740 0.229760 -1.235217 10.500611 -3.315676 -8.464670 -2.498565 -8.120549 1.281977 -2.177408 13.965067 2.265898 -2.685147 -3.524283 -0.155421 -10.289684 -3.446719 7.284846 -3.697237 -12.433754 -1.167137 5.799404 18.999180 -1.647475 1.862118 -3.497939 7.853870 7.738935 5.662994 -2.246887 -2.965590 3.313198 -4.155899 0.225908 -6.088878 7.245737 -9.189688 -8.091289 -0.739377 3.302794 -2.130027 -4.666417 -0.275927 6.479987 
-0.099779 48.419086 -0.583727 -0.302749 0.556633 -0.266613 0.000000 0.000000 0.000000 -4.326310 -0.457677 0.200638 5.001625 0.211133 0.191360 5.458929 0.341282 0.166798 -0.982438 10.131914 -3.305190 -8.200403 -2.691840 -8.096449 1.252779 -2.311743 13.393251 1.866683 -3.042346 -3.500614 -0.019807 -10.473975 -3.412198 7.213473 -3.591052 -12.302670 -1.192911 5.915909 18.723297 -1.685670 2.006541 -3.499988 7.795093 7.552966 5.528923 -2.253884 -2.992787 3.411946 -4.149265 0.213277 -6.041168 6.995281 -9.426638 -8.179148 -0.507630 3.287627 -1.869882 -4.702507 -0.275401 6.512720 
-0.085057 48.426765 -0.638480 -0.292989 0.673819 -0.403836 0.000000 0.000000 0.000000 -4.267739 -0.496666 0.300733 5.090429 0.165098 0.238046 5.624975 0.234058 0.173368 -1.110434 9.951708 -3.245562 -8.213818 -2.653813 -8.291956 1.214500 -2.090956 13.920841 2.303227 -2.496943 -3.526245 0.085962 -10.685842 -3.366242 7.323670 -3.550258 -12.473915 -1.151119 5.899940 18.356457 -1.554150 1.936302 -3.502232 7.787066 7.398737 5.369251 -2.303974 -2.954439 3.648129 -4.088181 0.215433 -6.028548 6.830087 -9.553650 -8.232455 -0.272823 3.285684 -1.619802 -4.768061 -0.303540 6.501987 
-0.096131 48.422237 -0.665336 -0.341817 0.624989 -0.404119 0.000000 0.000000 0.000000 -4.209143 -0.496704 0.300225 5.237034 0.192216 0.232788 5.527298 0.312050 0.149246 -1.124957 10.048517 -3.181157 -8.299198 -2.673420 -8.179626 1.185906 -2.114061 14.008997 2.052440 -2.717859 -3.511674 0.112420 -10.745336 -3.302493 7.441908 -3.500225 -12.548555 -1.130247 5.900107 18.198305 -1.539411 2.015471 -3.501067 7.817667 7.477767 5.448989 -2.294187 -2.973837 3.404027 -4.087709 0.210301 -6.020102 6.862796 -9.509668 -8.236730 -0.302282 3.332515 -1.583646 -4.741780 -0.266272 6.453761 
-0.094118 48.415062 -0.689712 -0.341817 0.624989 -0.345525 0.000000 0.000000 0.000000 -4.209162 -0.525921 0.312141 5.314987 0.100366 0.211332 5.507696 0.497320 0.041463 -1.216583 9.985367 -3.175693 -8.231638 -2.692633 -8.215109 1.195809 -2.113598 14.018980 1.959226 -2.635527 -3.506033 0.193063 -10.906560 -3.297698 7.578512 -3.567958 -12.507154 -1.141884 5.869253 18.373861 -1.516340 1.958175 -3.499912 7.799988 7.508132 5.462844 -2.271723 -3.010430 3.267323 -4.091681 0.209855 -5.999185 6.833791 -9.538775 -8.259771 -0.331646 3.343846 -1.820181 -4.654318 -0.268417 6.472351 
-0.101417 48.424500 -0.707064 -0.332041 0.449211 -0.324869 0.000000 0.000000 0.000000 -4.189550 -0.389581 0.292209 5.266173 0.230989 0.184972 5.546811 0.370566 0.048572 -1.149550 10.146751 -3.154972 -8.348238 -2.810885 -8.259587 1.206109 -2.111245 14.058195 2.117276 -2.498621 -3.515359 0.221121 -10.849399 -3.272453 7.591263 -3.586385 -12.673765 -1.147075 5.750802 18.839117 -1.690051 1.918219 -3.500571 7.781809 7.685489 5.635267 -2.255155 -3.072270 3.004646 -4.111995 0.212593 -5.956033 6.819585 -9.309365 -8.072158 -0.380920 3.308508 -1.803790 -4.629340 -0.274485 6.448075 
-0.102926 48.423237 -0.727099 -0.419935 0.449207 -0.374386 0.000000 0.000000 0.000000 -4.101688 -0.448068 0.325099 5.296825 0.388163 0.148094 5.556637 0.087766 0.132047 -0.980780 10.320667 -3.087351 -8.469478 -2.969628 -8.586528 1.195938 -1.987076 13.857657 1.875606 -2.709144 -3.501313 0.267276 -10.723808 -3.192045 7.452823 -3.519324 -12.607760 -1.164235 5.813913 18.628504 -1.760687 1.953033 -3.504615 7.831688 7.666050 5.612617 -2.255697 -3.025118 3.217812 -4.056667 0.208339 -6.009749 6.890663 -9.331441 -8.144972 -0.458609 3.357553 -1.760697 -4.542876 -0.258072 6.421579 
-0.099151 48.422741 -0.750431 -0.488306 0.576151 -0.424832 0.000000 0.000000 0.000000 -4.043146 -0.535773 0.389431 5.404700 0.270514 0.165045 5.175770 0.146222 0.069367 -1.069959 10.245937 -3.035353 -8.431889 -2.832715 -8.604733 1.158671 -1.914962 13.902865 2.164585 -2.789233 -3.517995 0.317001 -10.775079 -3.143554 7.394757 -3.490116 -12.653399 -1.213009 5.825643 18.613997 -1.685278 1.840240 -3.500255 7.895714 7.565101 5.609145 -2.264899 -3.091850 3.220879 -4.045263 0.203449 -5.948115 6.871585 -9.468754 -8.251519 -0.312629 3.356700 -1.780646 -4.563388 -0.265124 6.440199 
-0.101542 48.431797 -0.771950 -0.410172 0.507800 -0.452854 0.000000 0.000000 0.000000 -4.111460 -0.457803 0.413766 5.365527 0.247483 0.253722 5.146451 0.253444 0.062815 -1.029849 10.303684 -3.093404 -8.334488 -2.750975 -8.005500 1.075404 -2.153460 13.822339 2.117737 -2.664922 -3.515230 0.313179 -10.756612 -3.206295 7.395527 -3.431096 -12.721380 -1.191543 5.839404 18.397781 -1.689250 2.065026 -3.499980 7.806635 7.662335 5.652431 -2.247993 -3.113419 3.025611 -4.070498 0.211054 -5.945385 6.795402 -9.402792 -8.182117 -0.410047 3.364721 -1.757546 -4.497416 -0.269879 6.405113 
-0.091602 48.415318 -0.776153 -0.410176 0.566392 -0.463039 0.000000 0.000000 0.000000 -4.091933 -0.467555 0.443603 5.336682 0.245380 0.236287 5.166016 0.019496 0.067192 -0.861024 10.166374 -3.092738 -8.160235 -2.896670 -8.103267 1.106059 -2.147667 13.920511 2.322631 -2.652293 -3.527259 0.241432 -10.967864 -3.204708 7.598424 -3.352320 -12.614207 -1.163134 5.839809 18.531837 -1.718703 1.906683 -3.501980 7.795396 7.592746 5.583784 -2.226321 -3.091281 3.062031 -4.077716 0.208189 -5.957289 6.784611 -9.500134 -8.254041 -0.331425 3.410590 -1.460276 -4.570120 -0.253781 6.381538 
-0.087575 48.426262 -0.790826 -0.361348 0.595691 -0.365085 0.000000 0.000000 0.000000 -4.150535 -0.477261 0.444788 5.297420 0.208159 0.240725 5.224609 0.000000 0.068359 -0.964098 10.300630 -3.128682 -8.383694 -2.888486 -8.095223 1.193508 -2.178434 13.923856 2.580608 -2.548271 -3.542650 0.122692 -10.707409 -3.258026 7.266164 -3.227174 -12.664773 -1.203732 5.864711 18.761225 -1.358892 2.104731 -3.490379 7.741367 7.576349 5.551438 -2.207859 -3.103321 2.827324 -4.107306 0.212363 -5.924332 6.724822 -9.546621 -8.318604 -0.332191 3.445626 -1.656856 -4.536844 -0.254964 6.390995 
-0.088834 48.424126 -0.787794 -0.449247 0.644512 -0.434741 0.000000 0.000000 0.000000 -4.111483 -0.496765 0.445863 5.472602 0.115644 0.321036 4.960918 0.185172 0.085868 -1.020633 10.107039 -3.086317 -8.203441 -2.722049 -8.281367 1.143908 -1.990454 14.394156 1.699579 -2.553589 -3.491024 0.408431 -10.693650 -3.196078 7.301959 -3.404333 -12.403671 -1.160609 5.928711 18.368292 -1.821761 1.831885 -3.508341 7.853811 7.524413 5.495163 -2.216120 -3.051663 2.757165 -4.150335 0.212069 -5.978170 6.800095 -9.592427 -8.326183 -0.293023 3.424302 -1.468249 -4.569524 -0.256858 6.390851 
-0.093490 48.432556 -0.781552 -0.400410 0.566392 -0.462942 0.000000 0.000000 0.000000 -4.150512 -0.438301 0.451727 5.434290 0.252327 0.369043 4.980466 -0.068223 0.209398 -0.966363 9.958410 -3.139191 -7.896302 -2.679163 -7.934605 1.155528 -2.244491 14.101305 1.548838 -2.650842 -3.491537 0.445348 -10.579190 -3.230249 7.294019 -3.354783 -12.529805 -1.163193 5.882850 18.621490 -1.526090 1.957580 -3.500492 7.814291 7.601777 5.604840 -2.226389 -3.110862 2.896704 -4.124491 0.208034 -5.937043 6.815361 -9.492170 -8.263210 -0.467739 3.399917 -1.576742 -4.461944 -0.253855 6.390038 
-0.082793 48.416573 -0.774315 -0.419949 0.654279 -0.414951 0.000000 0.000000 0.000000 -4.170039 -0.428550 0.412104 5.481684 0.099235 0.417744 4.999998 -0.058478 0.238058 -0.882505 9.973635 -3.157330 -8.081476 -2.758860 -7.992521 1.198228 -2.200760 14.335052 0.789514 -2.726168 -3.446009 0.401113 -10.889866 -3.256954 7.677070 -3.312475 -12.657012 -1.173392 5.845237 18.601360 -1.781790 2.137636 -3.505529 7.830873 7.519040 5.513532 -2.222294 -3.067895 2.836481 -4.124559 0.220611 -5.963486 6.820814 -9.612882 -8.368618 -0.331350 3.439448 -1.490153 -4.578999 -0.254463 6.392048 
-0.069577 48.405376 -0.758295 -0.527376 0.634739 -0.396467 0.000000 0.000000 0.000000 -4.130992 -0.457792 0.423687 5.619919 0.301664 0.396554 4.912019 -0.399560 0.387106 -1.025180 10.352454 -3.101210 -8.480695 -2.595605 -7.964868 1.200644 -2.126158 14.429789 1.166822 -2.488161 -3.468979 0.366649 -10.368501 -3.203626 7.214302 -3.208999 -12.495615 -1.215833 5.880882 19.114546 -1.689640 2.231328 -3.500120 7.966916 7.537630 5.575148 -2.227782 -3.103837 2.760259 -4.145935 0.212333 -5.946190 6.948663 -9.624629 -8.401958 -0.312264 3.451966 -1.459787 -4.607274 -0.259743 6.422143 
